<?xml version="1.0" encoding="utf-8"?>
<!DOCTYPE svg PUBLIC "-//W3C//DTD SVG 1.0//EN" "http://www.w3.org/TR/2001/REC-SVG-20010904/DTD/svg10.dtd">
<svg version="1.0" xmlns="http://www.w3.org/2000/svg" width="256px" height="256px" viewBox="0 0 256 256" preserveAspectRatio="xMidYMid meet">
 <g fill="#1a671a">
  <path d="M137.9 251.8 c-3.9 -4.3 -10.1 -16.5 -13.4 -26.1 -4 -11.9 -5.6 -25 -6.2 -51 -0.4 -14 -1 -23.4 -1.5 -22.9 -0.5 0.5 -1.3 10.1 -1.8 21.3 -0.6 11.2 -1.5 22.9 -2.1 25.9 -4.2 20.8 -25 35.6 -45.1 32 -16.2 -2.9 -27.9 -15.8 -29.5 -32.3 l-0.6 -6.5 -3.7 -0.6 c-5.8 -0.9 -17.4 -7.2 -21.4 -11.6 -13.2 -14.6 -12 -36.3 2.8 -50.8 6.4 -6.3 13.3 -9.8 22.3 -11.3 6 -1.1 9.3 -0.9 24.4 0.9 26.7 3.4 38.9 2.8 38.9 -1.7 0 -3.5 -4.8 -4.4 -19.3 -3.7 -13.1 0.7 -33.5 -0.5 -42.5 -2.5 -11.5 -2.5 -22.1 -11 -27.4 -21.7 -3.1 -6.2 -3.3 -7.4 -3.3 -16.7 0 -11.7 1.7 -16.5 8.6 -23.9 4.5 -5 13.8 -10 20.4 -11.1 8.5 -1.3 8.3 -1.2 9.4 -6.5 3 -13.9 12.5 -24.7 25.1 -28.4 19.1 -5.7 40.1 5.7 47.6 25.9 1.7 4.5 1.9 8.3 2 35.7 0.1 33.2 0.2 33.8 5.4 33.8 3.9 0 4.5 -3.3 2.9 -15.7 -1.7 -13.5 -1.8 -45.3 0 -52 1.8 -7.1 7.9 -16.3 14 -21.1 14.9 -11.8 35.5 -11.4 48.1 0.8 5.3 5.2 10.4 14.5 11.5 21 0.6 3.7 0.6 3.7 6.3 4.3 14.2 1.3 26.6 10.1 31.1 22.2 3.2 8.5 2.7 21.5 -1.3 29.8 -4.9 10.2 -15 18.6 -26.1 21.6 -7.1 1.9 -23.6 3.3 -41.2 3.4 -18.5 0.2 -20 0.6 -18.9 5.1 0.8 3.1 3.3 3.3 12.9 1.1 17.8 -4.1 48.2 -5.7 57.3 -3 21.3 6.3 33.9 29.3 27 49.3 -3.4 9.9 -15 19.8 -27.1 23.1 l-4 1.1 -1.3 7.5 c-3.1 19.9 -16.6 31.9 -35.7 31.8 -14.3 0 -26.5 -7.1 -33.7 -19.3 -4.4 -7.5 -5.1 -10.5 -8.3 -36.4 -1.3 -11 -2.8 -20.3 -3.4 -20.9 -1.5 -1.5 -2.4 24.6 -1.1 35.3 2.8 23.9 8.4 34.4 23.6 44 4.5 2.8 6.4 4.7 6.4 6.1 0 7.2 -12.9 17.8 -21.8 17.9 -2.5 0 -4.1 -0.8 -6.3 -3.2z m11 -8.2 c5.4 -2.9 5.5 -3.9 0.2 -8 -5.5 -4.1 -8.8 -8.1 -11.8 -14.1 -2.8 -5.5 -6.1 -15.9 -7.7 -24.1 -1.3 -6.1 -1.4 -6.4 -1.5 -2.8 -0.3 13.8 8.1 39.9 15.7 48.7 1.8 2.1 1.6 2 5.1 0.3z m-63.8 -23.9 c5.6 -2.5 13.4 -9.9 16.2 -15.3 3 -5.8 3.8 -11.2 4.8 -31.9 1.2 -25.3 1.8 -28.1 6.4 -30.1 3.9 -1.6 9.3 -1.8 11.4 -0.5 0.8 0.5 1.7 2.9 2.1 5.3 l0.7 4.3 0.8 -4 c1.1 -5.7 2.1 -6.5 7.9 -6.5 4.2 0 5.7 0.5 7.3 2.3 3.6 3.9 4.1 5.8 6.2 24.2 1.2 9.9 2.6 20.5 3.2 23.5 2.4 12.1 8.4 20.2 18.8 25.4 7.1 3.6 11.9 4.2 18.5 2.1 11.2 -3.6 19.3 -14.2 20.3 -26.7 0.7 -10.6 0.7 -10.5 6.6 -11.7 21.9 -4.6 33.2 -23.4 24.2 -40 -8.6 -15.7 -27.7 -20.7 -57.5 -15.1 -6.3 1.2 -16.2 2.4 -22 2.7 -9.7 0.5 -10.7 0.3 -13.2 -1.7 -2.6 -2 -2.8 -2.7 -2.8 -9.6 0 -6 0.4 -7.8 2 -9.4 2.7 -2.7 3.8 -2.8 25.5 -3.4 25.1 -0.6 35.4 -2 43.1 -5.7 14.9 -7 22.6 -24.5 16.4 -36.9 -2.8 -5.7 -7.4 -10.6 -12.2 -13.1 -4.3 -2.2 -14.8 -4.9 -19.3 -4.9 -2.9 0 -3.1 -0.2 -4.2 -6.1 -1.3 -6.8 -7.7 -17.6 -12.7 -21.4 -8.7 -6.6 -18.9 -7.7 -27.4 -3 -7 3.8 -13.5 11.1 -16.3 18.3 -1.9 4.9 -2.3 7.7 -2.3 20.2 0 8 0.3 22.5 0.8 32.2 l0.9 17.6 -3.1 3.1 c-2.8 2.8 -3.6 3.1 -9.6 3.1 -5.9 0 -6.9 -0.3 -9.8 -2.9 l-3.3 -3 0.3 -28.3 c0.3 -33.3 -0.5 -39.1 -6.8 -48.6 -8.9 -13.4 -21.9 -17.7 -34.4 -11.6 -9.8 4.8 -16.6 14.7 -18.3 26.4 l-0.8 5.5 -7 0.8 c-27.2 3 -38.4 27.5 -21.2 46.4 9.9 10.8 24.7 14.3 54.4 12.8 24.1 -1.1 30.3 1.4 30.3 12.5 0 7.5 -2.2 10.4 -9.1 11.9 -7.8 1.7 -23 1.3 -40.1 -1 -13.9 -1.9 -16.5 -2 -21.9 -0.9 -16.2 3.5 -28.4 17.5 -26.5 30.4 1 6.8 5 14 9.7 17.8 5.8 4.7 7.7 5.6 16.2 7.7 l7.2 1.9 0.7 6.6 c1.3 11.2 4 17.4 10.2 23.2 9.2 8.7 17.4 10.1 28.7 5.1z m42.6 -37.4 c-0.2 -1.6 -0.4 -0.3 -0.4 2.7 0 3 0.2 4.3 0.4 2.8 0.2 -1.6 0.2 -4 0 -5.5z"/>
 </g>
 <g fill="#1d9f20">
  <path d="M139.4 244.3 c-4.2 -6.5 -5.7 -9.6 -8.8 -18.1 -4.3 -12.1 -5.7 -22.7 -6.5 -51.2 -0.5 -14.6 -1.2 -27.3 -1.6 -28.2 -0.3 -0.9 -1.3 -1.9 -2.1 -2.2 -1.9 -0.7 -6.6 1.1 -8.1 3.1 -1.1 1.4 -1.3 1.2 -1.3 -2 0 -3.1 0.3 -3.7 2.2 -3.7 l2.1 0 -2.3 -2.5 c-1.3 -1.4 -3 -2.5 -3.8 -2.5 -2.1 0 -13.3 6.2 -13.9 7.7 -0.3 0.7 -1.1 1.3 -1.9 1.3 -0.8 0 -1.9 0.9 -2.6 2 -0.7 1.1 -1.6 2 -2 2 -0.5 0 -10.3 9.5 -21.9 21 -11.6 11.6 -21.7 21 -22.4 21 -0.7 0 -1.5 -1 -1.7 -2.1 -0.2 -1.7 -1.6 -2.5 -7.5 -4 -8.5 -2.1 -10.4 -3 -16.2 -7.7 -5.6 -4.6 -9.2 -12.3 -9.9 -21.1 -0.8 -12.5 3.9 -21.7 14.6 -28.1 5.6 -3.4 7.2 -3.9 15.5 -4.5 6.8 -0.5 12.2 -0.2 20.7 1.1 13.3 2 29 2.3 37.2 0.5 9.2 -2 12.7 -8.7 7.4 -14.4 -2.2 -2.4 -2.2 -2.6 -0.6 -2.9 1.8 -0.3 1.8 -0.5 0.1 -5.4 -6.8 -19.1 -30.3 -45.5 -51.4 -57.8 -3.9 -2.3 -4.5 -3 -3.4 -4 0.8 -0.6 1.7 -3.3 2.1 -6 1.4 -11.1 8.5 -21.3 18.2 -26 5.2 -2.6 6.5 -2.8 13.8 -2.4 5.9 0.3 9.3 1.1 12.6 2.8 2.5 1.3 4.5 2.1 4.5 1.9 0 -0.2 1.5 0.7 3.3 1.9 1.8 1.3 3.1 2.9 3 3.5 -0.1 0.7 0.8 3.1 2 5.4 5.3 10.1 7 23.9 7.1 55.3 0 9.1 0.4 17.7 1 19.2 2.6 7 11.1 8.9 16.3 3.7 l3.1 -3.1 -0.9 -14.1 c-0.4 -7.8 -0.9 -20.9 -1 -29.2 -0.2 -13.5 0.1 -15.9 2.4 -24 2.4 -8.1 3.2 -9.5 8 -14.3 5.4 -5.2 10.3 -8.4 15.3 -9.5 4.7 -1.2 20.6 1.9 25 4.7 5.7 3.8 12.8 14.9 14.2 22.5 0.8 4.3 1.6 6.1 2.7 6.1 0.8 0 0.4 0.6 -1 1.3 -4.8 2.5 -14 9 -14 9.8 0 0.5 -0.4 0.9 -1 0.9 -1.2 0 -17 15.7 -17 16.9 0 0.5 -0.7 1.1 -1.5 1.5 -0.8 0.3 -1.5 1.2 -1.5 2.1 0 0.8 -0.4 1.5 -1 1.5 -0.5 0 -1 0.7 -1 1.5 0 0.8 -0.4 1.5 -1 1.5 -0.5 0 -1 0.7 -1 1.5 0 0.8 -0.4 1.5 -0.9 1.5 -0.5 0 -1.1 1 -1.5 2.3 -0.3 1.3 -1.7 3.6 -3.1 5.1 -1.4 1.5 -2.7 3.9 -3.1 5.4 -0.3 1.5 -1.4 4.7 -2.4 7.2 -4.2 10.4 -5 14.7 -3.5 18.4 0.8 1.9 2.5 4.2 3.7 5 3 2.1 12.8 2.1 21 0 4.6 -1.2 11.3 -1.7 25.3 -1.8 28.3 -0.2 33.2 0.8 39.6 8.1 5.1 5.9 7 11.4 7.8 22.6 0.8 11.6 -0.3 15 -6.3 21 -4.5 4.5 -9.7 7.3 -17.9 9.3 -6.6 1.7 -7.7 2.6 -7.7 6.2 0 1.8 -0.6 2.2 -2.9 2.2 -2.4 0 -4.5 -1.7 -11.8 -9.7 -17.9 -19.7 -28.5 -29 -43.7 -38.1 -10.3 -6.2 -17.5 -6.7 -20.1 -1.5 -0.6 1.1 -1.6 2.7 -2.2 3.5 -1.7 2 -2.7 11.7 -2.6 25.8 0.1 16.5 3.6 34.1 8.8 44.7 4 8.1 13 18 18.4 20.3 1.7 0.7 3.1 1.8 3.1 2.4 0 1.7 -5.8 7 -9.7 9 -5.4 2.7 -7.5 2.1 -10.9 -3.1z"/>
 </g>
 <g fill="#39c63a">
  <path d="M153.2 237.9 c-3 -1.7 -7.4 -5.1 -9.9 -7.7 -4.4 -4.7 -12.2 -19 -12.7 -23.4 -0.1 -1.3 -0.6 -2.9 -1 -3.6 -0.4 -0.7 -0.5 -1.6 -0.1 -2.1 0.3 -0.5 0.1 -1.2 -0.5 -1.6 -0.5 -0.3 -1 -1.6 -1 -2.8 0 -1.2 -0.3 -3.8 -0.6 -5.7 -1.1 -5.9 -1.3 -40.4 -0.3 -41.6 0.5 -0.6 0.7 -1.9 0.3 -2.8 -0.3 -0.9 -0.1 -1.6 0.6 -1.6 0.6 0 0.8 -0.4 0.5 -1 -0.3 -0.5 -0.1 -1 0.5 -1 0.6 0 0.8 -0.4 0.5 -1 -0.3 -0.5 -0.1 -1 0.4 -1 0.6 0 1 -0.5 0.8 -1.2 -0.1 -0.6 1.3 -2.2 3.2 -3.5 5.7 -3.9 14.2 -2.3 25.6 5 14.4 9.1 24.8 18.2 41.8 37 4.9 5.3 9.6 9.7 10.4 9.7 1.3 0 1.5 1.1 1.1 6.5 -1.1 12.8 -9.1 23.4 -20.4 27 -15.1 4.7 -33.2 -2.9 -39.8 -16.8 -3 -6.6 -4.1 -11.9 -6.7 -34.2 -1.1 -9.9 -2.6 -18.9 -3.1 -20 -3.1 -5.9 -8.1 -8.2 -10.9 -4.9 -3.2 3.9 -2 39.1 2 54.5 5.2 20.2 9 26 24.3 37.1 1.6 1.1 2 2 1.3 2.7 -0.7 0.7 -2.7 0.1 -6.3 -2z"/>
  <path d="M63.2 224.4 c-2.4 -0.9 -6.8 -3.9 -9.8 -6.8 -6.1 -5.7 -9 -12.2 -10.1 -22.6 l-0.6 -5.9 21.2 -21 c11.6 -11.6 21.4 -21.1 21.9 -21.1 0.4 0 1.3 -0.9 2 -2 0.7 -1.1 1.8 -2 2.6 -2 0.8 0 1.6 -0.6 1.9 -1.3 0.9 -2.3 12.7 -8 16.8 -8.1 2.9 0 4.5 0.6 6.6 2.7 3.7 3.4 3.9 8 0.5 8.5 -1.2 0.2 -2.9 1.4 -3.8 2.7 -1.8 2.7 -3.3 16.6 -3.4 30.5 -0.1 12 -1.5 22.1 -3.9 27.6 -2.9 6.4 -10.7 14.3 -17.1 17.2 -7 3.2 -18.5 3.9 -24.8 1.6z"/>
  <path d="M18.2 177.1 c-2.3 -2 -5.1 -6 -6.3 -8.7 -2.6 -5.8 -3.6 -16.3 -2 -22 2.6 -9.6 11.4 -17.9 22.9 -21.4 8.1 -2.5 14 -2.5 32.7 0.1 18.3 2.6 33.2 2.3 37.4 -0.9 5.9 -4.4 5.2 -11.4 -1.4 -14.7 -3.6 -1.8 -5.6 -2 -22 -1.7 -35 0.6 -47.2 -2.2 -57.2 -13.1 -8.9 -9.8 -11.5 -24.6 -6 -35.3 4.8 -9.5 15.1 -16 27.1 -17.1 3.7 -0.3 6.9 -1 7.2 -1.5 1.2 -1.9 16.3 8.4 27 18.4 12.7 11.9 26.1 30.8 29.9 42.2 1.8 5.6 2.7 17.6 1.2 17.6 -0.5 0 -0.7 0.6 -0.4 1.4 0.3 0.8 -0.1 1.7 -0.9 2 -0.9 0.3 -1.3 1 -0.9 1.6 0.9 1.4 -7.2 4.7 -15 6.1 -7.7 1.3 -18.5 0.8 -34.6 -1.6 -16.9 -2.6 -28.4 0 -36.3 8.1 -2.4 2.4 -4.1 4.6 -3.8 4.8 0.3 0.3 -0.2 0.8 -1.1 1.2 -0.9 0.3 -1.3 1.2 -1 2 0.3 0.8 0 1.4 -0.6 1.4 -0.6 0 -0.8 0.6 -0.5 1.4 0.3 0.8 0.2 1.6 -0.3 1.9 -0.9 0.6 -0.8 10.7 0.2 15.1 0.9 4.3 2.3 6.7 6.7 11.2 5.1 5.3 3.4 6.6 -2 1.5z"/>
  <path d="M231.3 177.4 c-0.8 -0.4 0.2 -1.9 2.5 -4.2 2 -2 3.7 -3.9 3.7 -4.2 0.3 -2 1.8 -5 2.5 -5 0.5 0 0.7 -0.7 0.4 -1.5 -0.4 -0.8 -0.2 -1.5 0.3 -1.5 0.6 0 0.9 -3.4 0.8 -7.9 -0.5 -19.4 -11.1 -27.9 -35.5 -28.7 -11.3 -0.4 -15.2 0 -35.5 3.1 -16.3 2.5 -23.2 0.2 -26.9 -8.8 -1.6 -3.9 -1.8 -5.2 -0.8 -6.7 0.6 -1.1 0.9 -2.6 0.6 -3.5 -0.4 -0.8 -0.1 -1.5 0.6 -1.5 0.7 0 1 -0.7 0.6 -1.5 -0.3 -0.8 -0.1 -1.5 0.5 -1.5 0.6 0 0.9 -0.7 0.5 -1.5 -0.3 -0.8 -0.1 -1.5 0.4 -1.5 0.5 0 0.7 -0.7 0.4 -1.5 -0.4 -0.8 -0.1 -1.5 0.6 -1.5 0.6 0 0.8 -0.4 0.5 -1 -0.3 -0.5 -0.1 -1 0.5 -1 0.6 0 0.8 -0.4 0.5 -1 -0.3 -0.5 -0.1 -1 0.5 -1 0.6 0 0.8 -0.4 0.5 -1 -0.7 -1.2 3.2 -9 4.6 -9 0.6 0 0.7 -0.4 0.4 -1 -0.3 -0.5 -0.1 -1 0.5 -1 0.6 0 0.8 -0.5 0.5 -1 -0.3 -0.5 -0.1 -1 0.5 -1 0.6 0 0.8 -0.5 0.5 -1 -0.3 -0.6 0.1 -1.3 0.9 -1.6 0.9 -0.3 1.3 -1 1 -1.5 -0.3 -0.5 0.2 -1.2 1 -1.5 0.9 -0.3 1.3 -1 1 -1.5 -0.3 -0.5 0.2 -1.2 1 -1.5 0.9 -0.3 1.4 -1 1.1 -1.4 -0.3 -0.5 0.5 -1.6 1.7 -2.4 1.2 -0.9 1.9 -1.6 1.5 -1.6 -0.5 0 3.1 -3.8 7.8 -8.5 4.7 -4.7 9 -8.5 9.5 -8.5 0.6 0 1 -0.4 1 -0.9 0 -1 13.5 -10.1 15 -10.1 0.5 0 1 0.5 1 1 0 0.6 1.5 1 3.3 1 4.6 0 15.1 2.7 19.5 4.9 4.7 2.5 9.4 7.4 12.3 13.1 3.4 6.7 3.3 18.4 -0.3 26.1 -5.7 12.4 -15.3 18.8 -31.3 20.9 -4.9 0.6 -17.5 1.3 -28 1.6 -10.4 0.3 -20 0.7 -21.3 1 -4 0.8 -6.2 4 -6.2 8.8 0 8.8 6.5 10.4 26.2 6.6 17.3 -3.3 30.5 -4.4 39.9 -3.1 8.9 1.2 18.2 4.9 23.4 9.4 5 4.2 8.5 11.7 9.2 19.6 0.8 9.7 -1.5 16.7 -8 23.7 -5 5.5 -5.2 5.6 -7.4 4.8z"/>
  <path d="M114 85.2 c-1.2 -1.3 -1.5 -4.9 -1.7 -16.7 -0.3 -25.6 -1.7 -33.9 -7 -43.8 -4.3 -7.7 -12.1 -13.2 -20.6 -14.3 -4.9 -0.7 -14.6 1.7 -17.1 4.1 -0.8 0.8 -1.8 1.5 -2.1 1.5 -0.9 0 -6.9 6.3 -7 7.3 0 0.4 -0.7 1.2 -1.5 1.7 -0.8 0.5 -1 1 -0.5 1 0.6 0 0.3 0.6 -0.5 1.3 -0.8 0.7 -1.7 2.1 -1.8 3.2 -0.5 2.4 -1 3 -1.8 2.2 -0.4 -0.4 0.1 -2.7 1 -5.1 6.4 -16.9 25.9 -25.8 41.7 -19.2 9.5 4 17.8 14.4 20.3 25.5 1.7 7.3 2 25.9 0.7 43.7 -0.5 8.2 -0.8 9 -2.1 7.6z"/>
  <path d="M135.3 77.3 c-0.4 -4.9 -0.8 -16.7 -0.7 -26.3 0 -20.4 1.2 -24.9 8.9 -33.7 6.7 -7.7 13.8 -10.8 24 -10.7 6.6 0 8.9 0.5 13 2.6 8.3 4.3 16.5 14.4 18.3 22.6 1.5 6.3 -0.7 5.4 -4 -1.7 -3.4 -7.1 -9.9 -14 -16.5 -17.1 -6.2 -3 -17.1 -3.3 -22.2 -0.6 -3.7 2 -10.6 8.6 -10.3 9.9 0.1 0.4 -0.5 1 -1.3 1.3 -0.8 0.3 -1.2 1 -0.9 1.5 0.3 0.5 0 0.9 -0.6 0.9 -0.6 0 -0.8 0.5 -0.5 1 0.3 0.6 0.2 1 -0.4 1 -0.6 0 -0.8 0.7 -0.5 1.5 0.4 0.8 0.1 1.5 -0.5 1.5 -0.6 0 -0.8 0.7 -0.5 1.5 0.4 0.8 0.1 1.5 -0.6 1.5 -0.7 0 -0.9 0.8 -0.5 1.9 0.3 1.1 0.2 2.2 -0.3 2.5 -1.2 0.7 -1.5 7.6 -1.6 29.4 -0.1 10 -0.4 18.2 -0.8 18.2 -0.3 0 -1 -3.9 -1.5 -8.7z"/>
 </g>
</svg>